# xmcd
#
# Track frame offsets:
#	150
#	10280
#	17880
#	28458
#	39971
#	52416
#	66691
#	85459
#	97595
#	111907
#	124621
#	140469
#	155152
#	171874
#	183851
#	194817
#	205374
#	215627
#	232161
#	243182
#
# Disc length: 3450 seconds
#
# Revision: 1
# Processed by: cddbd v1.5.1PL2 Copyright (c) Steve Scherf et al.
# Submitted via: EasyCDDAExtractor 6.5.0.1
#
DISCID=320d7814
DTITLE=Czerwone Gitary
DYEAR=1900
DGENRE=
TTITLE0=To wlasnie my
TTITLE1=Introdukcja zespolu
TTITLE2=Przed Pierwszym Balem
TTITLE3=Wedrowne Gitary
TTITLE4=Byle co
TTITLE5=Nikt na swiecie nie wie
TTITLE6=Coza dziewczyna
TTITLE7=Barwy jesieni
TTITLE8=Tuz przed zachodem slonca
TTITLE9=Nie zadzieraj nosa
TTITLE10=Tak mi sie podobasz
TTITLE11=Historia jednej znajomosci
TTITLE12=Bialy Krzyz
TTITLE13=Tak bardzo sie staralem
TTITLE14=Powiedz stary, gdzies Ty byl
TTITLE15=Dozwolone od lat 18-tu
TTITLE16=Takie ladne oczy
TTITLE17=Matura
TTITLE18=Moda i milosc
TTITLE19=Niebieskooka
EXTD=
EXTT0=
EXTT1=
EXTT2=
EXTT3=
EXTT4=
EXTT5=
EXTT6=
EXTT7=
EXTT8=
EXTT9=
EXTT10=
EXTT11=
EXTT12=
EXTT13=
EXTT14=
EXTT15=
EXTT16=
EXTT17=
EXTT18=
EXTT19=
PLAYORDER=
